<?xml version="1.0" encoding="UTF-8"?>
<!DOCTYPE svg PUBLIC "-//W3C//DTD SVG 1.1//EN" "http://www.w3.org/Graphics/SVG/1.1/DTD/svg11.dtd">
<svg xmlns="http://www.w3.org/2000/svg" version="1.1" id="Layer_1" width="64px" height="64px" style="shape-rendering:geometricPrecision; text-rendering:geometricPrecision; image-rendering:optimizeQuality; fill-rule:evenodd; clip-rule:evenodd" xmlns:xlink="http://www.w3.org/1999/xlink">
<g><path style="opacity:0.998" fill="#76def3" d="M 34.5,3.5 C 34.2624,5.40435 33.2624,6.73769 31.5,7.5C 30.6879,6.00691 29.3545,5.34024 27.5,5.5C 25.0582,5.28577 23.3915,6.28577 22.5,8.5C 21.8333,8.5 21.1667,8.5 20.5,8.5C 20.2865,6.85613 20.6198,5.35613 21.5,4C 25.8206,3.50098 30.1539,3.33432 34.5,3.5 Z"/></g>
<g><path style="opacity:1" fill="#37cfed" d="M 34.5,3.5 C 40.4254,3.19177 46.2588,3.5251 52,4.5C 52.4997,12.8267 52.6664,21.16 52.5,29.5C 50.326,29.7497 48.6594,30.7497 47.5,32.5C 47.6663,25.1591 47.4997,17.8258 47,10.5C 46.5,10 46,9.5 45.5,9C 40.8452,8.50085 36.1785,8.33418 31.5,8.5C 31.5,8.16667 31.5,7.83333 31.5,7.5C 33.2624,6.73769 34.2624,5.40435 34.5,3.5 Z"/></g>
<g><path style="opacity:1" fill="#f4fbfc" d="M 31.5,7.5 C 31.5,7.83333 31.5,8.16667 31.5,8.5C 28.7892,8.18493 26.4559,8.85159 24.5,10.5C 23.1667,10.5 22.5,9.83333 22.5,8.5C 23.3915,6.28577 25.0582,5.28577 27.5,5.5C 29.3545,5.34024 30.6879,6.00691 31.5,7.5 Z"/></g>
<g><path style="opacity:0.998" fill="#49abc2" d="M 20.5,8.5 C 21.1667,8.5 21.8333,8.5 22.5,8.5C 22.5,9.83333 23.1667,10.5 24.5,10.5C 24.2178,11.7777 23.5511,12.7777 22.5,13.5C 21.8333,13.5 21.1667,13.5 20.5,13.5C 18.8333,13.5 17.1667,13.5 15.5,13.5C 14.8333,9.5 16.5,7.83333 20.5,8.5 Z"/></g>
<g><path style="opacity:1" fill="#0088a6" d="M 31.5,8.5 C 36.1785,8.33418 40.8452,8.50085 45.5,9C 46,9.5 46.5,10 47,10.5C 47.4997,17.8258 47.6663,25.1591 47.5,32.5C 47.5,36.1667 47.5,39.8333 47.5,43.5C 48.1667,47.5 46.5,49.1667 42.5,48.5C 42.5,46.8333 42.5,45.1667 42.5,43.5C 42.6663,36.825 42.4996,30.1583 42,23.5C 38.8333,20.3333 35.6667,17.1667 32.5,14C 29.1832,13.5017 25.8499,13.335 22.5,13.5C 23.5511,12.7777 24.2178,11.7777 24.5,10.5C 26.4559,8.85159 28.7892,8.18493 31.5,8.5 Z"/></g>
<g><path style="opacity:0.999" fill="#71ddf2" d="M 15.5,13.5 C 17.1667,13.5 18.8333,13.5 20.5,13.5C 19.9447,15.7288 18.6114,17.3954 16.5,18.5C 16.6146,23.0576 14.6146,26.0576 10.5,27.5C 10.3343,23.1539 10.501,18.8206 11,14.5C 12.3561,13.6198 13.8561,13.2865 15.5,13.5 Z"/></g>
<g><path style="opacity:1" fill="#3ad1ee" d="M 20.5,13.5 C 21.1667,13.5 21.8333,13.5 22.5,13.5C 25.8499,13.335 29.1832,13.5017 32.5,14C 35.6667,17.1667 38.8333,20.3333 42,23.5C 42.4996,30.1583 42.6663,36.825 42.5,43.5C 39.9581,43.7059 38.2914,45.0392 37.5,47.5C 35.187,48.2733 32.8537,48.9399 30.5,49.5C 29.2949,50.5769 28.6282,51.9102 28.5,53.5C 22.5746,53.8082 16.7412,53.4749 11,52.5C 10.5003,44.1733 10.3336,35.84 10.5,27.5C 14.6146,26.0576 16.6146,23.0576 16.5,18.5C 18.6114,17.3954 19.9447,15.7288 20.5,13.5 Z"/></g>
<g><path style="opacity:0.965" fill="#2fb1cb" d="M 52.5,29.5 C 52.6657,33.8461 52.499,38.1794 52,42.5C 50.6439,43.3802 49.1439,43.7135 47.5,43.5C 47.5,39.8333 47.5,36.1667 47.5,32.5C 48.6594,30.7497 50.326,29.7497 52.5,29.5 Z"/></g>
<g><path style="opacity:0.99" fill="#2fb1cb" d="M 42.5,43.5 C 42.5,45.1667 42.5,46.8333 42.5,48.5C 42.7135,50.1439 42.3802,51.6439 41.5,53C 37.1794,53.499 32.8461,53.6657 28.5,53.5C 28.6282,51.9102 29.2949,50.5769 30.5,49.5C 32.8537,48.9399 35.187,48.2733 37.5,47.5C 38.2914,45.0392 39.9581,43.7059 42.5,43.5 Z"/></g>
<g><path style="opacity:0.256" fill="#000000" d="M 46.5,63.5 C 36.5,63.5 26.5,63.5 16.5,63.5C 15.1225,62.7656 13.6225,62.0989 12,61.5C 11.3828,60.5509 11.5494,59.7175 12.5,59C 25.1667,57 37.8333,57 50.5,59C 51.4506,59.7175 51.6172,60.5509 51,61.5C 49.3775,62.0989 47.8775,62.7656 46.5,63.5 Z"/></g>
</svg>
